<svg width="30" height="30" viewBox="0 0 30 30" fill="none" xmlns="http://www.w3.org/2000/svg">
<g opacity="0.5">
<path d="M12.146 25.6239L21.8623 15.6564C22.0329 15.4813 22.1284 15.2465 22.1284 15.002C22.1284 14.7575 22.0329 14.5227 21.8623 14.3476L12.146 4.37635C12.0665 4.29471 11.9715 4.22982 11.8665 4.18551C11.7615 4.1412 11.6487 4.11837 11.5348 4.11837C11.4208 4.11837 11.308 4.1412 11.203 4.18551C11.098 4.22982 11.003 4.29471 10.9235 4.37635C10.76 4.54378 10.6684 4.76855 10.6684 5.0026C10.6684 5.23665 10.76 5.46142 10.9235 5.62885L20.0604 15.002L10.9235 24.3732C10.7605 24.5406 10.6693 24.7649 10.6693 24.9985C10.6693 25.2321 10.7605 25.4565 10.9235 25.6239C11.003 25.7055 11.098 25.7704 11.203 25.8147C11.308 25.859 11.4208 25.8818 11.5348 25.8818C11.6487 25.8818 11.7615 25.859 11.8665 25.8147C11.9715 25.7704 12.0665 25.7055 12.146 25.6239Z" fill="#2E5984"/>
</g>
</svg>
