<svg width="30" height="30" viewBox="0 0 30 30" fill="none" xmlns="http://www.w3.org/2000/svg">
<g opacity="0.5">
<path d="M17.854 4.37615L8.13774 14.3436C7.96709 14.5187 7.87158 14.7535 7.87158 14.998C7.87158 15.2425 7.96709 15.4773 8.13774 15.6524L17.854 25.6236C17.9335 25.7053 18.0285 25.7702 18.1335 25.8145C18.2385 25.8588 18.3513 25.8816 18.4652 25.8816C18.5792 25.8816 18.692 25.8588 18.797 25.8145C18.902 25.7702 18.997 25.7053 19.0765 25.6236C19.24 25.4562 19.3316 25.2314 19.3316 24.9974C19.3316 24.7633 19.24 24.5386 19.0765 24.3711L9.93962 14.998L19.0765 5.62677C19.2395 5.45942 19.3307 5.23506 19.3307 5.00146C19.3307 4.76786 19.2395 4.54349 19.0765 4.37615C18.997 4.2945 18.902 4.22961 18.797 4.1853C18.692 4.14099 18.5792 4.11816 18.4652 4.11816C18.3513 4.11816 18.2385 4.14099 18.1335 4.1853C18.0285 4.22961 17.9335 4.2945 17.854 4.37615Z" fill="#2E5984"/>
</g>
</svg>
