<svg width="44" height="44" viewBox="0 0 44 44" fill="none" xmlns="http://www.w3.org/2000/svg">
<path d="M28.5908 7.70898H15.4091C11.1558 7.70898 7.7085 11.1569 7.7085 15.4096V28.5913C7.7085 32.8446 11.1564 36.2919 15.4097 36.2919H28.5902C32.8435 36.2919 36.2914 32.844 36.2914 28.5907V15.4096C36.2914 11.1563 32.8435 7.70898 28.5902 7.70898H28.5908Z" fill="#FAB536"/>
<path d="M28.5908 7.70898H15.4091C11.1558 7.70898 7.7085 11.1569 7.7085 15.4096V28.5913C7.7085 32.8446 11.1564 36.2919 15.4097 36.2919H28.5902C32.8435 36.2919 36.2914 32.844 36.2914 28.5907V15.4096C36.2914 11.1563 32.8435 7.70898 28.5902 7.70898H28.5908Z" stroke="white" stroke-width="2" stroke-miterlimit="10"/>
<path d="M22 28.8995C25.8105 28.8995 28.8995 25.8105 28.8995 22C28.8995 18.1896 25.8105 15.1006 22 15.1006C18.1896 15.1006 15.1006 18.1896 15.1006 22C15.1006 25.8105 18.1896 28.8995 22 28.8995Z" stroke="white" stroke-width="2" stroke-miterlimit="10"/>
<path d="M30.3777 15.1001C31.1941 15.1001 31.856 14.4383 31.856 13.6218C31.856 12.8054 31.1941 12.1436 30.3777 12.1436C29.5613 12.1436 28.8994 12.8054 28.8994 13.6218C28.8994 14.4383 29.5613 15.1001 30.3777 15.1001Z" fill="white"/>
</svg>
