<svg width="45" height="30" viewBox="0 0 45 30" fill="none" xmlns="http://www.w3.org/2000/svg">
<path d="M0 4.12722C0 2.44083 1.15613 1.77515 2.57905 1.68639L9.20455 1.73077C9.60474 1.73077 9.96047 1.99704 10.0939 2.39645C11.6057 7.27811 13.4733 10.2959 15.6966 13.713C15.83 13.9793 16.0524 14.1124 16.2747 14.1124C16.4526 14.1124 16.6304 14.0237 16.7638 13.8018L16.8972 13.3136L16.9417 5.63609C16.9417 4.52663 16.4081 4.34911 15.163 4.1716C14.6739 4.08284 14.3626 3.63905 14.3626 3.19527C14.3626 3.10651 14.3626 3.01775 14.4071 2.92899C15.0296 1.02071 16.9862 0.0443787 19.7431 0.0443787L22.2332 0C24.2787 0 26.1462 0.887574 26.1462 3.50592V13.5799C26.3241 13.713 26.502 13.8018 26.7243 13.8018C27.08 13.8018 27.5247 13.5799 27.8804 13.003C30.1927 9.76331 32.8162 5.90237 33.1719 3.86095C33.1719 3.77219 33.2164 3.72781 33.2609 3.63905C33.75 2.66272 34.9951 1.99704 35.5287 1.81953C35.6176 1.77515 35.751 1.73077 35.9289 1.73077H42.8211L43.2658 1.77515C43.9328 1.77515 44.4219 2.21894 44.6443 2.61834C45.0445 3.23965 44.9555 3.90533 45 4.1716V4.48225C44.333 8.52071 39.7085 13.0473 37.752 15.9763C37.4852 16.3314 37.3518 16.642 37.3518 16.9527C37.3518 17.2189 37.4852 17.4852 37.7075 17.7515L44.1996 25.9172C44.5553 26.4053 44.7332 26.9822 44.7332 27.4704C44.7332 28.9349 43.3547 29.7781 42.0208 29.9112L41.2648 29.9556H34.5059C34.3725 29.9556 34.2836 30 34.1502 30C33.3943 30 32.7717 29.6006 32.3271 29.1568C30.9042 27.426 29.5257 25.6509 28.1472 23.9201C27.8804 23.5651 27.7915 23.5207 27.5247 23.3432C27.2134 24.6302 26.9466 25.9615 26.6354 27.2929L26.502 28.0473C26.2796 28.8462 25.7016 29.6893 24.6344 29.9112L24.0119 29.9556H19.6542C11.9615 29.9556 5.06917 19.0385 0.222332 5.4142C0.0889328 5.05917 0 4.57101 0 4.12722ZM26.7243 15.6213C25.5682 15.6213 24.2787 14.9556 24.2787 13.713V3.50592C24.2787 2.30769 23.7451 1.86391 22.2777 1.86391L19.7431 1.95266C18.3202 1.95266 17.5198 2.17456 16.8528 2.61834C17.8755 3.10651 18.8093 3.77219 18.8093 5.63609V13.4467C18.6759 15 17.3864 16.0207 16.1413 16.0207C15.2964 16.0207 14.5405 15.5325 14.0958 14.7337C12.0949 11.716 10.4051 8.87574 8.93775 4.7929L8.53755 3.63905L2.62352 3.59467C1.82312 3.59467 1.91206 3.63905 1.91206 4.03846C1.91206 4.30473 1.95652 4.65976 2.00099 4.88166L2.93478 7.36686C7.78162 19.8817 13.8735 28.0917 19.6542 28.0917H24.1008C24.7233 28.0917 24.6789 27.3373 24.8123 26.8935L25.6571 22.9882C25.835 22.5888 25.9684 22.2337 26.2796 21.9231C26.6354 21.568 27.0356 21.4349 27.4358 21.4349C28.2806 21.4349 29.081 22.1006 29.6146 22.7219L33.3943 27.5148C33.7055 28.003 33.9723 28.0917 34.1502 28.0917H41.4872C42.1986 28.0917 42.8211 27.8698 42.8211 27.426C42.8211 27.2929 42.7767 27.1154 42.6877 26.9822L36.2401 18.9497C35.7065 18.284 35.4842 17.6183 35.4842 16.9527C35.4842 16.2426 35.751 15.5325 36.1957 14.9112C38.0632 12.1154 42.0652 8.1213 42.999 4.83728L43.1324 4.26035C43.0879 4.03846 43.0879 3.86095 43.0435 3.63905H36.0623C35.6176 3.81657 35.2619 4.08284 34.9951 4.43787L34.7283 5.28106C33.7055 8.1213 30.9042 12.0266 28.9032 14.7337C28.2362 15.355 27.4802 15.6213 26.7243 15.6213Z" fill="white"/>
</svg>
