<svg width="46" height="46" viewBox="0 0 46 46" fill="none" xmlns="http://www.w3.org/2000/svg">
<path d="M28.3515 20.6524L21.3212 16.6044C20.9084 16.3668 20.4404 16.2419 19.9641 16.2422C19.4878 16.2426 19.02 16.3682 18.6075 16.6064C18.1951 16.8447 17.8526 17.1872 17.6143 17.5996C17.3761 18.012 17.2505 18.4799 17.2502 18.9562V27.0483C17.2444 28.0182 17.7619 28.9152 18.6033 29.3943C19.0159 29.6353 19.4849 29.7626 19.9627 29.7633C20.4405 29.764 20.9099 29.638 21.3231 29.3982L28.3515 25.3502C28.7644 25.1128 29.1074 24.7708 29.3459 24.3585C29.5844 23.9463 29.71 23.4785 29.71 23.0022C29.71 22.526 29.5844 22.0582 29.3459 21.6459C29.1074 21.2337 28.7644 20.8917 28.3515 20.6543V20.6524ZM27.3932 23.6846L20.3667 27.7345C20.2449 27.8059 20.1063 27.8436 19.9651 27.8436C19.824 27.8436 19.6853 27.8059 19.5636 27.7345C19.4417 27.6655 19.3406 27.5651 19.2709 27.4437C19.2011 27.3224 19.1651 27.1845 19.1668 27.0445V18.9562C19.1655 18.8165 19.2016 18.679 19.2713 18.558C19.3411 18.437 19.442 18.3369 19.5636 18.2681C19.6843 18.1946 19.8229 18.1558 19.9642 18.1558C20.1055 18.1558 20.244 18.1946 20.3647 18.2681L27.3932 22.318C27.5144 22.3864 27.6152 22.4859 27.6854 22.6061C27.7556 22.7263 27.7926 22.863 27.7926 23.0022C27.7926 23.1415 27.7556 23.2782 27.6854 23.3984C27.6152 23.5186 27.5144 23.618 27.3932 23.6865V23.6846ZM36.4168 7.66699H9.5835C8.05897 7.66851 6.59732 8.2748 5.51931 9.35281C4.44131 10.4308 3.83502 11.8925 3.8335 13.417V32.5837C3.83502 34.1082 4.44131 35.5698 5.51931 36.6478C6.59732 37.7258 8.05897 38.3321 9.5835 38.3337H36.4168C37.9414 38.3321 39.403 37.7258 40.481 36.6478C41.559 35.5698 42.1653 34.1082 42.1668 32.5837V13.417C42.1653 11.8925 41.559 10.4308 40.481 9.35281C39.403 8.2748 37.9414 7.66851 36.4168 7.66699ZM40.2502 32.5837C40.2486 33.5999 39.8443 34.574 39.1257 35.2926C38.4072 36.0111 37.433 36.4155 36.4168 36.417H9.5835C8.5673 36.4155 7.59316 36.0111 6.8746 35.2926C6.15604 34.574 5.75168 33.5999 5.75016 32.5837V13.417C5.75168 12.4008 6.15604 11.4267 6.8746 10.7081C7.59316 9.98954 8.5673 9.58518 9.5835 9.58366H36.4168C37.433 9.58518 38.4072 9.98954 39.1257 10.7081C39.8443 11.4267 40.2486 12.4008 40.2502 13.417V32.5837Z" fill="white"/>
</svg>
